<svg xmlns="http://www.w3.org/2000/svg" viewBox="0 0 100 120" fill="none">
  <!-- Symmetrical, fluid, organic tech branding vector for the ManpraX logo -->
  <path d="M 50,44 
           C 56,44 64,34 72,24
           C 84,11 92,18 88,31
           C 84,41 74,53 74,60
           C 74,67 84,79 88,89
           C 92,102 84,109 72,96
           C 64,86 56,76 50,76
           C 44,76 36,86 28,96
           C 16,109 8,102 12,89
           C 16,79 26,67 26,60
           C 26,53 16,41 12,31
           C 8,18 16,11 28,24
           C 36,34 44,44 50,44 Z" 
        fill="#D5E63B" />
</svg>
